<svg version="1.1" xmlns="http://www.w3.org/2000/svg" style="display: block;" viewBox="0 0 2048 2048" width="2048" height="2048" preserveAspectRatio="none">
  <metadata>
                <![CDATA[
            {
  "prompt": {
    "1": {
      "_meta": {
        "title": "Load Image"
      },
      "class_type": "LoadImage",
      "inputs": {
        "image": "3c810ba92b6bdfabebf432fd6fabf0fee4df992822a58640ebb15548bdbac356.jpg"
      },
      "is_changed": [
        "262bb8e54d6c78bfd2b37ab50e31d7854b8d49e056d76cf87b371aea373cbb54"
      ]
    },
    "2": {
      "_meta": {
        "title": "Recraft Remove Background"
      },
      "class_type": "RecraftRemoveBackgroundNode",
      "inputs": {
        "image": [
          "1",
          0
        ]
      }
    },
    "3": {
      "_meta": {
        "title": "Save Image"
      },
      "class_type": "SaveImage",
      "inputs": {
        "filename_prefix": "ComfyUI",
        "images": [
          "2",
          0
        ]
      }
    },
    "4": {
      "_meta": {
        "title": "Recraft Vectorize Image"
      },
      "class_type": "RecraftVectorizeImageNode",
      "inputs": {
        "image": [
          "2",
          0
        ]
      }
    },
    "5": {
      "_meta": {
        "title": "SaveSVGNode"
      },
      "class_type": "SaveSVGNode",
      "inputs": {
        "filename_prefix": "svg/ComfyUI",
        "svg": [
          "4",
          0
        ]
      }
    }
  },
  "workflow": {
    "config": {},
    "extra": {
      "VHS_KeepIntermediate": true,
      "VHS_MetadataImage": true,
      "VHS_latentpreview": false,
      "VHS_latentpreviewrate": 0,
      "ds": {
        "offset": [
          -264,
          -160
        ],
        "scale": 1
      },
      "frontendVersion": "1.41.13"
    },
    "groups": [],
    "id": "fe9830d6-a359-4ffe-9f00-aee5e3d06690",
    "last_link_id": 4,
    "last_node_id": 5,
    "links": [
      [
        1,
        1,
        0,
        2,
        0,
        "IMAGE"
      ],
      [
        2,
        2,
        0,
        3,
        0,
        "IMAGE"
      ],
      [
        3,
        2,
        0,
        4,
        0,
        "IMAGE"
      ],
      [
        4,
        4,
        0,
        5,
        0,
        "SVG"
      ]
    ],
    "nodes": [
      {
        "flags": {},
        "id": 1,
        "inputs": [],
        "mode": 0,
        "order": 0,
        "outputs": [
          {
            "links": [
              1
            ],
            "name": "IMAGE",
            "type": "IMAGE"
          },
          {
            "links": null,
            "name": "MASK",
            "type": "MASK"
          }
        ],
        "pos": [
          280,
          269
        ],
        "properties": {
          "Node name for S&R": "LoadImage"
        },
        "size": [
          282.796875,
          340
        ],
        "type": "LoadImage",
        "widgets_values": [
          "3c810ba92b6bdfabebf432fd6fabf0fee4df992822a58640ebb15548bdbac356.jpg",
          "image"
        ]
      },
      {
        "bgcolor": "#653",
        "color": "#432",
        "flags": {},
        "id": 2,
        "inputs": [
          {
            "link": 1,
            "name": "image",
            "type": "IMAGE"
          }
        ],
        "mode": 0,
        "order": 1,
        "outputs": [
          {
            "links": [
              2,
              3
            ],
            "name": "IMAGE",
            "type": "IMAGE"
          },
          {
            "links": null,
            "name": "MASK",
            "type": "MASK"
          }
        ],
        "pos": [
          730,
          309
        ],
        "properties": {
          "Node name for S&R": "RecraftRemoveBackgroundNode"
        },
        "size": [
          227.78125,
          136
        ],
        "type": "RecraftRemoveBackgroundNode",
        "widgets_values": []
      },
      {
        "flags": {},
        "id": 3,
        "inputs": [
          {
            "link": 2,
            "name": "images",
            "type": "IMAGE"
          }
        ],
        "mode": 0,
        "order": 2,
        "outputs": [],
        "pos": [
          1562,
          424
        ],
        "properties": {},
        "size": [
          611,
          527
        ],
        "type": "SaveImage",
        "widgets_values": [
          "ComfyUI"
        ]
      },
      {
        "bgcolor": "#653",
        "color": "#432",
        "flags": {},
        "id": 4,
        "inputs": [
          {
            "link": 3,
            "name": "image",
            "type": "IMAGE"
          }
        ],
        "mode": 0,
        "order": 3,
        "outputs": [
          {
            "links": [
              4
            ],
            "name": "SVG",
            "type": "SVG"
          }
        ],
        "pos": [
          1206,
          1123
        ],
        "properties": {
          "Node name for S&R": "RecraftVectorizeImageNode"
        },
        "size": [
          225,
          48
        ],
        "type": "RecraftVectorizeImageNode",
        "widgets_values": []
      },
      {
        "flags": {},
        "id": 5,
        "inputs": [
          {
            "link": 4,
            "name": "svg",
            "type": "SVG"
          }
        ],
        "mode": 0,
        "order": 4,
        "outputs": [],
        "pos": [
          1583,
          1120
        ],
        "properties": {
          "Node name for S&R": "SaveSVGNode"
        },
        "size": [
          270,
          84
        ],
        "type": "SaveSVGNode",
        "widgets_values": [
          "svg/ComfyUI"
        ]
      }
    ],
    "revision": 0,
    "version": 0.4
  }
}
                ]]>
            </metadata>
            
<path transform="translate(0,0)" fill="rgb(48,170,248)" d="M 656.955 441.455 C 678.871 429.711 701.738 418.13 723.965 407.03 C 743.295 397.377 768.232 381.859 789.005 377.205 C 826.228 368.865 863.301 400.893 893.423 419.273 C 953.517 456.304 1013.34 493.778 1072.88 531.692 C 1077.88 539.339 1069.43 574.006 1077.01 578.737 C 1084.13 574.313 1111.62 562.856 1119.9 560.466 C 1131.71 565.077 1175.6 594.462 1189.54 603.042 L 1306.76 675.705 C 1332.57 691.541 1363.86 708.872 1386.93 728.072 C 1414.18 750.746 1437.75 793.638 1441.5 828.901 C 1443.44 847.167 1443 867.362 1443 885.722 L 1442.96 960.891 L 1442.96 1080.16 C 1442.97 1099.49 1443.61 1121.63 1442.96 1140.6 C 1428.16 1148.34 1412.4 1156.27 1397.83 1164.29 C 1409.91 1170.61 1429.69 1181.75 1440.94 1189.61 C 1442.53 1191.62 1442.31 1194.06 1442.32 1196.74 C 1442.66 1270.74 1442.47 1344.96 1442.32 1418.96 L 1442.19 1494.42 C 1442.2 1537.72 1446.61 1574.01 1400.8 1597.14 C 1360.85 1617.3 1321.43 1639.96 1281.07 1659.56 C 1235.2 1684.95 1214.76 1664.21 1175.21 1639.93 C 1151.58 1625.62 1128.08 1611.08 1104.71 1596.33 C 1060.93 1568.85 1014.95 1542.28 971.72 1514.49 C 971.815 1506.17 972.682 1472.79 970.741 1465.93 C 957.83 1471.72 943.667 1484.71 931.21 1489.35 C 914.806 1480.6 894.49 1467.24 878.126 1457.14 L 791.03 1403.85 C 764.132 1387.52 737.333 1371.01 710.635 1354.35 C 696.687 1345.73 674.177 1333.47 662.606 1322.54 C 634.998 1296.45 607.715 1247.98 606.515 1209.5 C 605.351 1172.16 605.957 1134.35 605.96 1097.26 L 605.961 886.963 L 606.051 646.027 C 606.03 603.548 605.479 560.928 606.31 518.473 C 607.042 481.014 622.635 456.057 656.955 441.455 z M 933.183 1108.34 C 961.273 1125.88 989.494 1143.21 1017.84 1160.33 C 1032.03 1168.99 1051.57 1181.7 1066.05 1188.82 C 1069.77 1193.76 1066.59 1222.35 1068.41 1232.52 C 1080.07 1226.9 1090.94 1217.73 1103.39 1214.45 C 1108.52 1213.1 1110.58 1214.53 1114.75 1217.15 C 1116.82 1212.55 1115.91 1165.69 1115.73 1157.32 C 1121.72 1153.32 1151.4 1140.92 1161.81 1135.17 C 1147.52 1125.4 1131.17 1116.73 1116.44 1107.02 L 1116.25 938.888 C 1070.6 912.424 1019.24 878.921 974.22 850.141 C 973.54 834.449 974.414 818.522 973.462 802.521 L 931.822 826.755 C 931.698 854.377 930.603 1102.97 933.183 1108.34 z"/>
<path transform="translate(0,0)" fill="rgb(244,3,70)" d="M 656.955 441.455 C 678.871 429.711 701.738 418.13 723.965 407.03 C 743.295 397.377 768.232 381.859 789.005 377.205 C 826.228 368.865 863.301 400.893 893.423 419.273 C 953.517 456.304 1013.34 493.778 1072.88 531.692 C 1077.88 539.339 1069.43 574.006 1077.01 578.737 L 1075.97 580.12 C 1070.9 580.025 989.041 615.607 979.707 620.58 C 978.51 622.618 978.55 621.649 978.96 623.394 C 974.799 633.757 974.552 782.125 973.462 802.521 L 931.822 826.755 C 931.698 854.377 930.603 1102.97 933.183 1108.34 C 961.273 1125.88 989.494 1143.21 1017.84 1160.33 C 1032.03 1168.99 1051.57 1181.7 1066.05 1188.82 C 1065.65 1189.65 1065.24 1190.47 1064.83 1191.3 C 1034.37 1209.41 989.119 1237.3 959.908 1253.66 C 958.503 1252.74 958.918 1253.27 958.368 1252.33 C 951.093 1260.21 939.911 1264.35 931.605 1270.77 C 930.153 1291.38 931.403 1317.73 931.128 1338.99 C 930.486 1388.77 932.072 1439.64 931.21 1489.35 C 914.806 1480.6 894.49 1467.24 878.126 1457.14 L 791.03 1403.85 C 764.132 1387.52 737.333 1371.01 710.635 1354.35 C 696.687 1345.73 674.177 1333.47 662.606 1322.54 C 634.998 1296.45 607.715 1247.98 606.515 1209.5 C 605.351 1172.16 605.957 1134.35 605.96 1097.26 L 605.961 886.963 L 606.051 646.027 C 606.03 603.548 605.479 560.928 606.31 518.473 C 607.042 481.014 622.635 456.057 656.955 441.455 z"/>
<path transform="translate(0,0)" fill="rgb(2,144,221)" d="M 1072.88 531.692 C 1077.88 539.339 1069.43 574.006 1077.01 578.737 L 1075.97 580.12 C 1070.9 580.025 989.041 615.607 979.707 620.58 C 978.51 622.618 978.55 621.649 978.96 623.394 C 974.799 633.757 974.552 782.125 973.462 802.521 L 931.822 826.755 C 931.698 854.377 930.603 1102.97 933.183 1108.34 C 927.856 1110.29 914.262 1118.03 908.278 1121.18 C 889.785 1130.87 871.369 1140.7 853.03 1150.68 C 845.136 1154.95 836.993 1159.67 828.728 1163.14 C 825.963 1164.3 824.187 1163.76 822.024 1161.82 C 822.611 1152.91 822.084 1136.78 822.053 1127.27 L 821.788 1061.3 L 820.74 862.002 L 820.185 799.221 C 820.099 789.12 819.491 771.116 821.008 761.71 L 822.455 760.67 C 826.807 760.908 830.146 763.443 834.055 765.693 C 834.259 765.883 834.463 766.073 834.667 766.263 C 865.605 785.271 896.351 804.704 927.733 822.958 C 929.033 823.715 930.238 823.627 931.539 823.505 C 934.755 816.116 933.369 703.118 933.954 685.624 L 934.992 684.822 C 935.847 680.169 935.568 674.345 935.493 669.545 C 935.093 643.824 936.564 618.1 936.328 592.393 C 949.428 585.983 1070.39 535.037 1072.88 531.692 z"/>
<path transform="translate(0,0)" fill="rgb(48,170,248)" d="M 656.955 441.455 C 678.871 429.711 701.738 418.13 723.965 407.03 C 743.295 397.377 768.232 381.859 789.005 377.205 C 826.228 368.865 863.301 400.893 893.423 419.273 C 953.517 456.304 1013.34 493.778 1072.88 531.692 C 1070.39 535.037 949.428 585.983 936.328 592.393 C 936.564 618.1 935.093 643.824 935.493 669.545 C 935.568 674.345 935.847 680.169 934.992 684.822 L 933.954 685.624 C 933.244 679.881 933.727 663.479 933.694 657.229 C 933.582 635.838 934.253 614.324 933.606 592.93 C 916.86 581.667 896.504 569.702 879.152 558.952 L 784.011 499.86 L 735.155 469.192 C 704.269 449.786 694.034 440.592 656.955 441.455 z"/>
<path transform="translate(0,0)" fill="rgb(48,170,248)" d="M 933.183 1108.34 C 961.273 1125.88 989.494 1143.21 1017.84 1160.33 C 1032.03 1168.99 1051.57 1181.7 1066.05 1188.82 C 1065.65 1189.65 1065.24 1190.47 1064.83 1191.3 C 1034.37 1209.41 989.119 1237.3 959.908 1253.66 C 958.503 1252.74 958.918 1253.27 958.368 1252.33 C 951.003 1246.23 925.864 1231.49 916.999 1226.01 L 838.074 1177.35 C 830.936 1172.35 823.355 1171.07 822.024 1161.82 C 824.187 1163.76 825.963 1164.3 828.728 1163.14 C 836.993 1159.67 845.136 1154.95 853.03 1150.68 C 871.369 1140.7 889.785 1130.87 908.278 1121.18 C 914.262 1118.03 927.856 1110.29 933.183 1108.34 z"/>
<path transform="translate(0,0)" fill="rgb(220,6,64)" d="M 788.791 737.549 C 799.647 744.814 813.748 752.383 826.414 755.424 L 827.606 756.616 C 831.442 760.416 832.401 760.743 834.055 765.693 C 830.146 763.443 826.807 760.908 822.455 760.67 L 821.008 761.71 C 819.491 771.116 820.099 789.12 820.185 799.221 L 820.74 862.002 L 821.788 1061.3 L 822.053 1127.27 C 822.084 1136.78 822.611 1152.91 822.024 1161.82 C 823.355 1171.07 830.936 1172.35 838.074 1177.35 C 834.093 1177.61 830.331 1177.9 826.883 1175.87 C 812.967 1167.7 806.008 1175.68 790.278 1181.18 L 788.473 898.933 L 788.473 796.903 C 788.433 780.248 787.252 753.296 788.791 737.549 z"/>
<path transform="translate(0,0)" fill="rgb(244,3,70)" d="M 1115.73 1157.32 C 1128.35 1166.83 1155.11 1180.03 1169.68 1188.88 C 1211.51 1214.27 1257.73 1237.37 1299.5 1262.45 C 1300.69 1289.97 1298.82 1318.84 1299.94 1346.42 C 1302.15 1340.94 1301.79 1272.56 1301.76 1262.78 C 1320.64 1250.25 1435.52 1196.99 1440.94 1189.61 C 1442.53 1191.62 1442.31 1194.06 1442.32 1196.74 C 1442.66 1270.74 1442.47 1344.96 1442.32 1418.96 L 1442.19 1494.42 C 1442.2 1537.72 1446.61 1574.01 1400.8 1597.14 C 1360.85 1617.3 1321.43 1639.96 1281.07 1659.56 C 1235.2 1684.95 1214.76 1664.21 1175.21 1639.93 C 1151.58 1625.62 1128.08 1611.08 1104.71 1596.33 C 1060.93 1568.85 1014.95 1542.28 971.72 1514.49 C 971.815 1506.17 972.682 1472.79 970.741 1465.93 C 957.83 1471.72 943.667 1484.71 931.21 1489.35 C 932.072 1439.64 930.486 1388.77 931.128 1338.99 C 931.403 1317.73 930.153 1291.38 931.605 1270.77 C 939.911 1264.35 951.093 1260.21 958.368 1252.33 C 958.918 1253.27 958.503 1252.74 959.908 1253.66 C 989.119 1237.3 1034.37 1209.41 1064.83 1191.3 C 1065.24 1190.47 1065.65 1189.65 1066.05 1188.82 C 1069.77 1193.76 1066.59 1222.35 1068.41 1232.52 C 1080.07 1226.9 1090.94 1217.73 1103.39 1214.45 C 1108.52 1213.1 1110.58 1214.53 1114.75 1217.15 C 1116.82 1212.55 1115.91 1165.69 1115.73 1157.32 z"/>
<path transform="translate(0,0)" fill="rgb(2,144,221)" d="M 1440.94 1189.61 C 1442.53 1191.62 1442.31 1194.06 1442.32 1196.74 C 1442.66 1270.74 1442.47 1344.96 1442.32 1418.96 L 1442.19 1494.42 C 1442.2 1537.72 1446.61 1574.01 1400.8 1597.14 C 1360.85 1617.3 1321.43 1639.96 1281.07 1659.56 C 1287.19 1650.19 1295.14 1637.6 1296.97 1626.42 C 1301.37 1599.47 1299.84 1569.39 1299.81 1542.06 L 1299.77 1414.48 C 1299.75 1393.24 1298.84 1367.16 1299.94 1346.42 C 1302.15 1340.94 1301.79 1272.56 1301.76 1262.78 C 1320.64 1250.25 1435.52 1196.99 1440.94 1189.61 z"/>
<path transform="translate(0,0)" fill="rgb(2,144,221)" d="M 1066.05 1188.82 C 1069.77 1193.76 1066.59 1222.35 1068.41 1232.52 C 1068.16 1233.41 1067.9 1234.3 1067.65 1235.18 C 1059.35 1242.11 1004.74 1270.86 999.875 1275.54 C 991.43 1282.07 979.248 1286.84 971.166 1293.42 C 969.912 1341.52 971.65 1390.11 970.779 1438.27 C 970.615 1447.36 970.546 1456.83 970.741 1465.93 C 957.83 1471.72 943.667 1484.71 931.21 1489.35 C 932.072 1439.64 930.486 1388.77 931.128 1338.99 C 931.403 1317.73 930.153 1291.38 931.605 1270.77 C 939.911 1264.35 951.093 1260.21 958.368 1252.33 C 958.918 1253.27 958.503 1252.74 959.908 1253.66 C 989.119 1237.3 1034.37 1209.41 1064.83 1191.3 C 1065.24 1190.47 1065.65 1189.65 1066.05 1188.82 z"/>
<path transform="translate(0,0)" fill="rgb(48,170,248)" d="M 1068.41 1232.52 C 1080.07 1226.9 1090.94 1217.73 1103.39 1214.45 C 1108.52 1213.1 1110.58 1214.53 1114.75 1217.15 L 1114.95 1295.47 C 1114.97 1309.17 1115.57 1330.16 1114.15 1343.33 C 1087.78 1328.99 1061.51 1311.19 1035.49 1296.08 C 1026.08 1290.61 1009.52 1279.51 999.875 1275.54 C 1004.74 1270.86 1059.35 1242.11 1067.65 1235.18 C 1067.9 1234.3 1068.16 1233.41 1068.41 1232.52 z"/>
<path transform="translate(0,0)" fill="rgb(244,3,70)" d="M 978.96 623.394 C 991.669 629.825 1008.17 640.785 1020.63 648.595 L 1090.35 692.268 L 1178.71 747.291 C 1234.95 782.174 1269.58 799.657 1291.95 867.523 C 1296.87 882.418 1300.01 897.846 1301.29 913.481 C 1302.58 930.539 1301.76 954.391 1301.62 971.851 L 1301.07 1065.47 L 1301.03 1153.35 C 1301.06 1170.18 1301.64 1191.62 1300.34 1208.12 L 1299.13 1210.06 C 1288.92 1210.06 1201.19 1154.05 1182.89 1146.1 C 1178.55 1144.22 1166.19 1135.6 1161.81 1135.17 C 1147.52 1125.4 1131.17 1116.73 1116.44 1107.02 L 1116.25 938.888 C 1070.6 912.424 1019.24 878.921 974.22 850.141 C 973.54 834.449 974.414 818.522 973.462 802.521 C 974.552 782.125 974.799 633.757 978.96 623.394 z"/>
</svg>